HIERARCHY
ROOT Hips
{
	OFFSET 0.00 0.00 0.00
	CHANNELS 6 Xposition Yposition Zposition Xrotation Yrotation Zrotation
	JOINT LeftUpLeg
	{
		OFFSET 4.29448 0.00000 0.00000
		CHANNELS 3 Xrotation Yrotation Zrotation
		JOINT LeftLeg
		{
			OFFSET 0.00000 -19.20276 0.00000
			CHANNELS 3 Xrotation Yrotation Zrotation
			JOINT LeftFoot
			{
				OFFSET -0.02174 -15.68217 -0.01872
				CHANNELS 3 Xrotation Yrotation Zrotation
				JOINT LeftToeBase
				{
					OFFSET 0.04083 -0.34615 6.18044
					CHANNELS 3 Xrotation Yrotation Zrotation
					End Site
					{
						OFFSET 0.01735 0.60354 2.89036
					}
				}
			}
		}
	}
	JOINT RightUpLeg
	{
		OFFSET -4.29448 0.00000 0.00000
		CHANNELS 3 Xrotation Yrotation Zrotation
		JOINT RightLeg
		{
			OFFSET -0.00000 -19.20276 0.46564
			CHANNELS 3 Xrotation Yrotation Zrotation
			JOINT RightFoot
			{
				OFFSET 0.03510 -15.68217 0.03397
				CHANNELS 3 Xrotation Yrotation Zrotation
				JOINT RightToeBase
				{
					OFFSET -0.09359 -0.35473 6.17938
					CHANNELS 3 Xrotation Yrotation Zrotation
					End Site
					{
						OFFSET -0.06574 -1.30919 2.64583
					}
				}
			}
		}
	}
	JOINT Spine
	{
		OFFSET 0.00000 0.03937 0.00000
		CHANNELS 3 Xrotation Yrotation Zrotation
		JOINT Spine1
		{
			OFFSET 0.00000 8.13660 0.00000
			CHANNELS 3 Xrotation Yrotation Zrotation
			JOINT Neck
			{
				OFFSET -0.08254 7.72853 -1.10446
				CHANNELS 3 Xrotation Yrotation Zrotation
				JOINT Head
				{
					OFFSET 0.00000 7.64180 0.00000
					CHANNELS 3 Xrotation Yrotation Zrotation
					End Site
					{
						OFFSET 0.00000 4.52755 0.00000
					}
				}
			}
			JOINT LeftShoulder
			{
				OFFSET -0.08254 7.72853 -1.10446
				CHANNELS 3 Xrotation Yrotation Zrotation
				JOINT LeftArm
				{
					OFFSET 7.63573 -0.00003 0.00000
					CHANNELS 3 Xrotation Yrotation Zrotation
					JOINT LeftForeArm
					{
						OFFSET 10.94210 -0.00004 0.00000
						CHANNELS 3 Xrotation Yrotation Zrotation
						JOINT LeftHand
						{
							OFFSET 9.96262 -0.00004 0.00000
							CHANNELS 3 Xrotation Yrotation Zrotation
							JOINT LeftHandThumb
							{
								OFFSET 0.00000 0.00000 0.00000
								CHANNELS 3 Xrotation Yrotation Zrotation
								End Site
								{
									OFFSET 0.00000 0.00000 3.93700
								}
							}
							JOINT L_Wrist_End
							{
								OFFSET 3.93700 -0.00001 0.00000
								CHANNELS 3 Xrotation Yrotation Zrotation
							}
						}
					}
				}
			}
			JOINT RightShoulder
			{
				OFFSET -0.08254 7.72853 -1.10446
				CHANNELS 3 Xrotation Yrotation Zrotation
				JOINT RightArm
				{
					OFFSET -7.63573 -0.00003 0.00000
					CHANNELS 3 Xrotation Yrotation Zrotation
					JOINT RightForeArm
					{
						OFFSET -10.94210 -0.00004 0.00000
						CHANNELS 3 Xrotation Yrotation Zrotation
						JOINT RightHand
						{
							OFFSET -9.96262 -0.00004 0.00000
							CHANNELS 3 Xrotation Yrotation Zrotation
							JOINT RightHandThumb
							{
								OFFSET 0.00000 0.00000 0.00000
								CHANNELS 3 Xrotation Yrotation Zrotation
								End Site
								{
									OFFSET 0.00000 0.00000 3.93700
								}
							}
							JOINT R_Wrist_End
							{
								OFFSET -5.39369 -0.00002 0.00000
								CHANNELS 3 Xrotation Yrotation Zrotation
							}
						}
					}
				}
			}
		}
	}
}
MOTION
Frames: 17
Frame Time: 0.008333
 43.2219 -7.5569 36.4180 -98.5005 8.5645 -179.9109 -12.0215 -8.2152 8.8501 36.3241 -0.0000 0.0000 -19.5411 19.9311 -22.2735 9.1066 0.0160 -0.0604 -17.7073 25.7303 -2.5912 45.9341 -0.0000 0.0000 -14.7607 -26.3489 13.7532 -36.6101 0.9148 -0.2233 1.5090 1.9453 -7.4567 -6.2422 -2.4912 4.2127 10.8705 6.3677 -2.1637 -17.3774 6.4781 0.6833 -15.1609 3.3070 2.3550 14.4124 -12.0735 -64.6849 -0.0002 -48.0125 -0.0001 -3.4472 -7.0566 -14.1384 -0.0000 -0.0000 0.0000 -0.0000 -0.0000 0.0000 -12.1863 2.6592 1.6814 2.3421 -2.3839 61.7440 -0.0007 74.0378 0.0006 -2.0496 -4.2311 12.9968 -0.0000 0.0000 -0.0000 -0.0000 0.0000 -0.0000
 43.2202 -7.2575 36.9167 -98.8392 8.4520 -179.8710 -10.6967 -8.2398 8.7935 33.2029 -0.0000 0.0000 -16.0135 20.0603 -23.4205 9.1023 0.0160 -0.0604 -16.0599 25.3462 -3.2415 42.5787 -0.0000 0.0000 -12.2472 -26.2761 15.2801 -35.4483 0.8845 -0.2254 0.7071 1.9126 -7.4509 -6.4461 -2.6416 4.1565 11.1076 6.3783 -2.0274 -16.6634 6.5600 0.8427 -14.9032 2.9545 3.3529 15.7382 -13.5283 -65.0997 -0.0003 -50.5680 -0.0001 -3.4540 -5.8322 -14.3362 -0.0000 -0.0000 0.0000 -0.0000 -0.0000 0.0000 -12.2352 2.7091 0.9742 2.9647 -2.4561 61.8026 -0.0008 75.4961 0.0006 -1.7872 -4.1175 11.9960 -0.0000 -0.0000 0.0000 -0.0000 -0.0000 0.0000
 43.2152 -6.9675 37.4389 -99.1256 8.2469 -179.8229 -9.5204 -8.4325 8.6979 30.3406 -0.0000 0.0000 -11.9911 20.1472 -24.7214 9.7529 0.0167 -0.0648 -14.4798 24.9207 -3.9158 39.4808 -0.0000 0.0000 -9.2151 -25.9134 16.7307 -34.5867 0.8619 -0.2266 -0.0527 1.8611 -7.4694 -6.5748 -2.7972 4.1146 11.2675 6.3869 -1.9410 -15.9160 6.5384 1.0518 -14.7248 2.7526 4.1654 16.8160 -15.0240 -65.3790 -0.0003 -52.6948 -0.0001 -2.9421 -5.1761 -14.7023 -0.0000 -0.0000 0.0000 -0.0000 -0.0000 0.0000 -12.2394 2.8531 0.4914 3.5444 -2.8157 61.6973 -0.0009 76.9988 0.0007 -2.4251 -4.3547 11.8482 -0.0000 -0.0000 0.0000 -0.0000 -0.0000 0.0000
 43.2005 -6.6787 37.9711 -99.3940 7.9256 -179.8024 -8.5079 -8.8104 8.5727 27.7064 -0.0000 0.0000 -7.8045 20.2016 -25.5765 10.5423 0.0176 -0.0701 -13.0035 24.2905 -4.5950 36.5475 -0.0000 0.0000 -5.8942 -25.2432 18.3951 -33.5473 0.8348 -0.2275 -0.7640 1.8103 -7.4602 -6.7333 -2.9410 4.1013 11.5036 6.3353 -1.9442 -15.2417 6.3931 1.2950 -14.6027 2.5999 4.8846 17.7636 -16.6577 -65.6408 -0.0003 -54.4769 -0.0002 -3.2044 -4.5403 -15.4685 -0.0000 0.0000 -0.0000 -0.0000 0.0000 -0.0000 -12.2617 2.9667 0.0224 4.1917 -3.2589 61.5966 -0.0010 78.3279 0.0008 -2.4589 -4.4411 11.8319 -0.0000 0.0000 -0.0000 -0.0000 0.0000 -0.0000
 43.1750 -6.3909 38.5091 -99.6613 7.5493 -179.8249 -7.6521 -9.2418 8.4403 25.2490 -0.0000 0.0000 -3.4769 20.3562 -26.7346 13.2829 0.0201 -0.0888 -11.6658 23.4094 -5.2398 33.7202 -0.0000 0.0000 -2.2975 -24.4157 20.2006 -32.4888 0.8071 -0.2280 -1.3626 1.7435 -7.4105 -7.0302 -3.0791 4.1300 11.7247 6.2973 -2.0441 -14.5688 6.1907 1.5975 -14.4545 2.4468 5.4691 18.7125 -18.1698 -65.8783 -0.0003 -56.1536 -0.0002 -3.7771 -3.7506 -16.7465 -0.0000 0.0000 -0.0000 -0.0000 0.0000 -0.0000 -12.2910 2.9647 -0.4388 4.8797 -3.6274 61.5247 -0.0011 79.4545 0.0009 -2.6681 -4.4486 11.7901 -0.0000 0.0000 -0.0000 -0.0000 0.0000 -0.0000
 43.1455 -6.1190 39.0523 -99.9157 7.0915 -179.8813 -6.9766 -9.6811 8.3217 22.9157 -0.0000 0.0000 0.6456 20.3934 -27.0463 16.5755 0.0218 -0.1113 -10.5005 22.3025 -5.8267 31.0320 -0.0000 0.0000 1.5512 -23.3927 21.8037 -31.4331 0.7795 -0.2280 -1.8539 1.6549 -7.3300 -7.3998 -3.2122 4.1615 12.0564 6.1741 -2.1679 -14.1205 5.9677 1.8208 -14.3473 2.1804 5.8770 19.7636 -19.5594 -65.9931 -0.0003 -57.7794 -0.0002 -3.7993 -3.3596 -16.7846 -0.0000 0.0000 -0.0000 -0.0000 0.0000 -0.0000 -12.3207 2.9442 -0.8236 5.5732 -3.9840 61.4423 -0.0012 80.3657 0.0010 -2.5171 -4.6282 11.7385 -0.0000 -0.0000 0.0000 -0.0000 -0.0000 0.0000
 43.1070 -5.8527 39.5921 -100.1538 6.6191 -179.9690 -6.4531 -10.0534 8.1845 20.7366 -0.0000 0.0000 4.7195 20.3927 -26.5813 21.7861 0.0219 -0.1471 -9.4644 20.9313 -6.3485 28.3662 -0.0000 0.0000 5.6107 -22.0887 22.8514 -30.4738 0.7544 -0.2275 -2.3241 1.6072 -7.2062 -7.7680 -3.2982 4.1905 12.5324 6.0088 -2.3618 -13.9333 5.6896 2.0025 -14.2350 1.9425 6.0958 20.7617 -20.8348 -65.9646 -0.0004 -59.3839 -0.0002 -3.9142 -2.7432 -17.2246 -0.0000 0.0000 -0.0000 -0.0000 0.0000 -0.0000 -12.2576 2.9100 -1.1622 6.2171 -4.3596 61.4035 -0.0013 80.9233 0.0011 -2.5686 -4.1744 11.4411 -0.0000 0.0000 -0.0000 -0.0000 0.0000 -0.0000
 43.0623 -5.5904 40.1234 -100.3897 6.1636 179.9154 -6.0681 -10.3682 8.0402 18.7707 -0.0000 0.0000 8.4691 20.0839 -24.9434 31.5771 0.0134 -0.2137 -8.5787 19.2431 -6.7881 25.6821 -0.0000 0.0000 9.5774 -20.4508 23.6112 -29.8395 0.7378 -0.2270 -2.8026 1.6155 -7.0451 -8.0707 -3.3402 4.2348 13.0532 5.8174 -2.5848 -13.9685 5.3857 2.1610 -14.1148 1.6671 6.1995 21.7154 -22.0175 -65.9151 -0.0004 -60.8912 -0.0002 -4.0925 -2.0981 -17.5047 -0.0000 0.0000 -0.0000 -0.0000 0.0000 -0.0000 -12.1478 2.8193 -1.4583 6.7502 -4.7341 61.3776 -0.0014 81.2696 0.0012 -2.2354 -3.7240 11.1816 -0.0000 0.0000 -0.0000 -0.0000 0.0000 -0.0000
 42.9988 -5.3117 40.6500 -100.7155 5.6252 179.7363 -5.4410 -12.3838 7.8648 16.6502 -0.0000 0.0000 11.7663 20.4328 -22.4772 42.3566 -0.0089 -0.2841 -7.6954 17.6046 -7.1546 22.7581 -0.0000 0.0000 13.2796 -18.8348 23.6501 -28.6208 0.7059 -0.2254 -3.3608 1.5421 -6.7810 -8.3928 -3.4759 4.3436 13.6597 5.6440 -2.8792 -14.2611 5.0876 2.2073 -13.9515 1.7213 6.1046 22.5656 -23.0579 -65.8453 -0.0004 -62.2626 -0.0002 -4.0516 -1.5480 -17.8985 -0.0000 -0.0000 0.0000 -0.0000 -0.0000 0.0000 -11.9705 2.7406 -1.6657 7.1549 -5.1117 61.3179 -0.0014 81.4715 0.0012 -2.3726 -3.6310 11.2029 -0.0000 -0.0000 0.0000 -0.0000 -0.0000 0.0000
 42.9484 -5.0571 41.1395 -100.8962 5.1634 179.4455 -5.4091 -12.2720 7.8008 15.9281 -0.0000 0.0000 13.0338 19.2317 -20.4275 37.5064 0.0027 -0.2530 -7.2497 15.4422 -7.2384 20.9229 -0.0000 0.0000 15.7221 -16.9140 21.4569 -26.1143 0.6406 -0.2201 -3.8939 1.5348 -6.4457 -8.5171 -3.5355 4.4551 14.5565 5.4576 -3.2064 -15.0932 4.8287 2.2685 -13.6935 1.4308 5.9313 23.4809 -23.9124 -65.6167 -0.0004 -63.5955 -0.0003 -4.4025 -1.4011 -17.2978 -0.0000 0.0000 -0.0000 -0.0000 0.0000 -0.0000 -11.7039 2.8332 -1.8967 7.5045 -5.4407 61.3525 -0.0014 81.3759 0.0012 -2.2058 -3.0885 10.4181 -0.0000 0.0000 -0.0000 -0.0000 0.0000 -0.0000
 42.9018 -4.8278 41.5947 -101.0887 4.9965 179.1372 -5.3793 -12.3103 7.7265 15.4083 -0.0000 -0.0000 12.8780 18.5713 -20.8359 35.2460 0.0073 -0.2381 -6.9420 14.6556 -7.1680 19.9675 -0.0000 0.0000 17.3215 -14.7468 19.4689 -25.6944 0.6297 -0.2189 -4.3270 1.6433 -6.1167 -8.6005 -3.5041 4.5942 15.1637 5.3296 -3.4790 -15.8893 4.5964 2.3210 -13.5197 1.2887 5.9908 24.0614 -24.5415 -65.8394 -0.0004 -64.6562 -0.0003 -4.8278 -0.9340 -17.3436 -0.0000 -0.0000 0.0000 -0.0000 -0.0000 0.0000 -11.6426 2.7575 -2.0806 7.6926 -5.6189 61.4987 -0.0013 81.0967 0.0011 -2.0472 -3.1815 10.3517 -0.0000 -0.0000 0.0000 -0.0000 -0.0000 0.0000
 42.8640 -4.6108 42.0122 -101.2858 4.8757 178.8259 -5.4213 -12.5159 7.6132 14.9974 -0.0000 0.0000 12.5989 17.9896 -21.5880 37.8166 0.0021 -0.2550 -6.7843 14.6291 -6.9304 19.8758 -0.0000 0.0000 18.1349 -13.2101 18.9233 -25.9539 0.6364 -0.2197 -4.8415 1.7666 -5.7863 -8.5318 -3.4689 4.7111 15.8614 5.1809 -3.7051 -16.9147 4.3990 2.3846 -13.3147 1.0960 6.0066 24.5722 -24.9299 -66.0533 -0.0005 -65.6045 -0.0003 -5.3101 -0.6202 -17.2360 -0.0000 -0.0000 0.0000 -0.0000 -0.0000 0.0000 -11.5996 2.8096 -2.1635 7.8209 -5.8745 61.6582 -0.0013 80.7153 0.0011 -1.7929 -3.2247 10.4646 -0.0000 0.0000 -0.0000 -0.0000 0.0000 -0.0000
 42.8138 -4.4028 42.3972 -101.4169 4.8048 178.6847 -5.2719 -13.6932 7.2417 14.3666 -0.0000 -0.0000 13.2594 17.8318 -21.4188 40.6049 -0.0044 -0.2730 -6.9550 14.0897 -6.7005 20.7957 -0.0000 0.0000 18.6352 -12.1088 18.5363 -26.3154 0.6458 -0.2206 -5.1408 1.8618 -5.5761 -8.5705 -3.4412 4.8141 16.4475 5.0498 -3.9249 -17.9263 4.1996 2.3873 -13.1137 1.0480 6.0794 25.0423 -25.2881 -66.4033 -0.0005 -66.3127 -0.0003 -5.9115 -0.7126 -16.9167 -0.0000 0.0000 -0.0000 -0.0000 0.0000 -0.0000 -11.6626 2.7357 -2.2038 7.9085 -5.8599 61.7162 -0.0012 80.1868 0.0010 -1.4095 -3.3603 11.3493 -0.0000 0.0000 -0.0000 -0.0000 0.0000 -0.0000
 42.8097 -4.1976 42.7533 -101.9926 4.8716 178.4310 -6.1447 -12.1687 7.0649 14.4192 -0.0000 -0.0000 13.5093 16.1072 -19.6730 38.8389 -0.0002 -0.2616 -7.5605 14.3714 -6.0575 21.9347 -0.0000 0.0000 19.3342 -12.2235 17.6434 -26.4680 0.6498 -0.2210 -6.0612 1.9725 -5.4427 -8.4129 -3.3589 4.9883 17.0822 4.9126 -3.8511 -18.8296 4.1941 2.3080 -12.7948 0.5175 6.0699 25.5538 -24.6037 -66.9570 -0.0005 -67.3146 -0.0003 -5.6075 -0.2414 -16.6212 -0.0000 0.0000 -0.0000 -0.0000 0.0000 -0.0000 -11.6806 2.8643 -1.7829 7.9447 -6.0695 61.4570 -0.0012 79.7035 0.0010 -1.0221 -3.9442 12.1057 -0.0000 -0.0000 0.0000 -0.0000 -0.0000 0.0000
 42.7869 -4.0263 43.0756 -102.0149 4.8651 178.3929 -6.3694 -12.0786 6.4926 14.2955 -0.0000 0.0000 13.9056 15.0773 -18.2592 37.3857 0.0030 -0.2522 -7.8756 14.1430 -5.6354 23.8927 -0.0000 0.0000 19.4964 -12.2833 17.0071 -26.4669 0.6498 -0.2210 -6.1587 2.0102 -5.4006 -8.3417 -3.3278 5.0363 17.5696 4.9188 -4.0002 -20.0059 4.0970 2.4496 -12.7229 0.7513 6.1535 25.9030 -24.9548 -67.1207 -0.0005 -67.5463 -0.0003 -6.3590 -0.6436 -16.5942 -0.0000 -0.0000 0.0000 -0.0000 -0.0000 0.0000 -11.7913 2.8834 -1.6686 7.8912 -5.9397 61.6445 -0.0011 78.8215 0.0009 -1.3206 -3.6352 12.7692 -0.0000 0.0000 -0.0000 -0.0000 0.0000 -0.0000
 42.7887 -3.8554 43.3658 -102.4599 5.2351 178.4695 -7.1145 -10.6424 5.9161 14.2033 -0.0000 0.0000 13.6189 13.8381 -17.7054 37.4822 0.0028 -0.2528 -8.6036 14.9736 -5.1325 26.0727 -0.0000 0.0000 19.6818 -12.3935 16.7544 -26.8168 0.6589 -0.2219 -6.8355 2.1090 -5.5669 -7.9914 -3.1927 5.2311 17.6615 5.0794 -3.9160 -20.4392 4.1939 2.4104 -12.7286 0.7580 6.1602 26.3982 -24.2218 -67.6712 -0.0005 -68.2280 -0.0004 -6.0594 0.1466 -16.7143 -0.0000 0.0000 -0.0000 -0.0000 0.0000 -0.0000 -11.8753 2.8666 -1.0987 7.5579 -5.4308 61.2697 -0.0010 77.9853 0.0008 -0.4031 -4.1313 13.0342 -0.0000 -0.0000 0.0000 -0.0000 -0.0000 0.0000
 42.7802 -3.6901 43.6212 -102.4450 5.1805 178.3842 -7.4133 -9.9221 5.3747 14.1093 -0.0000 0.0000 13.4141 12.8851 -17.8926 38.2228 0.0012 -0.2576 -8.9418 14.8228 -4.5831 28.5753 -0.0000 0.0000 19.5728 -11.9180 16.5534 -26.5046 0.6507 -0.2211 -6.8727 2.1876 -5.5288 -7.9142 -3.1136 5.2875 17.9049 5.0326 -3.9662 -20.9138 4.0870 2.5295 -12.6848 0.9605 6.1426 26.6310 -24.4176 -67.8234 -0.0005 -68.0662 -0.0004 -6.3531 -0.3854 -16.8409 -0.0000 -0.0000 0.0000 -0.0000 -0.0000 0.0000 -11.9243 2.9399 -0.9215 7.5701 -5.4694 61.4778 -0.0009 77.2050 0.0007 -1.1018 -4.3745 13.6105 -0.0000 0.0000 -0.0000 -0.0000 0.0000 -0.0000
